<?xml version="1.0" encoding="UTF-8" standalone="no"?>
<!DOCTYPE svg PUBLIC "-//W3C//DTD SVG 1.1//EN"
 "http://www.w3.org/Graphics/SVG/1.1/DTD/svg11.dtd">
<!-- Generated by graphviz version 2.38.0 (20140413.2041)
 -->
<!-- Title: %3 Pages: 1 -->
<svg width="605pt" height="479pt"
 viewBox="0.00 0.00 605.38 479.00" xmlns="http://www.w3.org/2000/svg" xmlns:xlink="http://www.w3.org/1999/xlink">
<g id="graph0" class="graph" transform="scale(1 1) rotate(0) translate(4 475)">
<title>%3</title>
<polygon fill="#333333" stroke="none" points="-4,4 -4,-475 601.377,-475 601.377,4 -4,4"/>
<text text-anchor="middle" x="298.688" y="-9.2" font-family="Times,serif" font-size="16.00" fill="white">Network Map</text>
<!-- R4 -->
<g id="node1" class="node"><title>R4</title>
<polygon fill="#006699" stroke="#006699" points="433.377,-223 357.377,-223 357.377,-150 433.377,-150 433.377,-223"/>
<text text-anchor="middle" x="395.377" y="-182.8" font-family="Helvetica,sans-Serif" font-size="14.00" fill="white">R4</text>
</g>
<!-- R1 -->
<g id="node2" class="node"><title>R1</title>
<polygon fill="#006699" stroke="#006699" points="126.377,-347 50.3767,-347 50.3767,-274 126.377,-274 126.377,-347"/>
<text text-anchor="middle" x="88.3767" y="-306.8" font-family="Helvetica,sans-Serif" font-size="14.00" fill="white">R1</text>
</g>
<!-- SW1 -->
<g id="node3" class="node"><title>SW1</title>
<polygon fill="#006699" stroke="#006699" points="254.877,-223 165.877,-223 165.877,-150 254.877,-150 254.877,-223"/>
<text text-anchor="middle" x="210.377" y="-182.8" font-family="Helvetica,sans-Serif" font-size="14.00" fill="white">SW1</text>
</g>
<!-- R1&#45;&#45;SW1 -->
<g id="edge4" class="edge"><title>R1&#45;&#45;SW1</title>
<path fill="none" stroke="green" stroke-dasharray="5,2" d="M119.215,-273.981C128.95,-263.167 139.903,-251.396 150.377,-241 156.32,-235.101 162.773,-229.028 169.171,-223.187"/>
<text text-anchor="middle" x="200.377" y="-244.8" font-family="Courier,monospace" font-size="14.00" fill="white"> &#160;&#160;&#160;&#160;&#160;&#160;&#160;&#160;&#160;&#160;&#160;</text>
<text text-anchor="middle" x="144.171" y="-226.987" font-family="Courier,monospace" font-size="14.00" fill="white">Eth0/1</text>
<text text-anchor="middle" x="94.2149" y="-262.781" font-family="Courier,monospace" font-size="14.00" fill="white">Eth0/0</text>
</g>
<!-- SW1&#45;&#45;R1 -->
<g id="edge1" class="edge"><title>SW1&#45;&#45;R1</title>
<path fill="none" stroke="green" stroke-dasharray="5,2" d="M165.848,-194.308C117.215,-202.759 44.0028,-218.817 27.3767,-241 14.8654,-257.693 31.1319,-275.238 50,-288.393"/>
<text text-anchor="middle" x="77.3767" y="-244.8" font-family="Courier,monospace" font-size="14.00" fill="white"> &#160;&#160;&#160;&#160;&#160;&#160;&#160;&#160;&#160;&#160;&#160;</text>
<text text-anchor="middle" x="25" y="-277.193" font-family="Courier,monospace" font-size="14.00" fill="white">Eth0/0</text>
<text text-anchor="middle" x="140.848" y="-183.108" font-family="Courier,monospace" font-size="14.00" fill="white">Eth0/1</text>
</g>
<!-- R2 -->
<g id="node4" class="node"><title>R2</title>
<polygon fill="#006699" stroke="#006699" points="371.377,-347 295.377,-347 295.377,-274 371.377,-274 371.377,-347"/>
<text text-anchor="middle" x="333.377" y="-306.8" font-family="Helvetica,sans-Serif" font-size="14.00" fill="white">R2</text>
</g>
<!-- SW1&#45;&#45;R2 -->
<g id="edge2" class="edge"><title>SW1&#45;&#45;R2</title>
<path fill="none" stroke="green" stroke-dasharray="5,2" d="M242.098,-223.33C251.911,-234.046 262.9,-245.684 273.377,-256 280.238,-262.757 287.76,-269.758 295.087,-276.38"/>
<text text-anchor="middle" x="323.377" y="-244.8" font-family="Courier,monospace" font-size="14.00" fill="white"> &#160;&#160;&#160;&#160;&#160;&#160;&#160;&#160;&#160;&#160;&#160;</text>
<text text-anchor="middle" x="270.087" y="-265.18" font-family="Courier,monospace" font-size="14.00" fill="white">Eth0/0</text>
<text text-anchor="middle" x="217.098" y="-227.13" font-family="Courier,monospace" font-size="14.00" fill="white">Eth0/2</text>
</g>
<!-- R3 -->
<g id="node7" class="node"><title>R3</title>
<polygon fill="#006699" stroke="#006699" points="371.377,-99 295.377,-99 295.377,-26 371.377,-26 371.377,-99"/>
<text text-anchor="middle" x="333.377" y="-58.8" font-family="Helvetica,sans-Serif" font-size="14.00" fill="white">R3</text>
</g>
<!-- SW1&#45;&#45;R3 -->
<g id="edge3" class="edge"><title>SW1&#45;&#45;R3</title>
<path fill="none" stroke="green" stroke-dasharray="5,2" d="M239.33,-149.66C248.578,-138.832 259.091,-127.135 269.377,-117 277.423,-109.072 286.507,-101.008 295.25,-93.6276"/>
<text text-anchor="middle" x="319.377" y="-120.8" font-family="Courier,monospace" font-size="14.00" fill="white"> &#160;&#160;&#160;&#160;&#160;&#160;&#160;&#160;&#160;&#160;&#160;</text>
<text text-anchor="middle" x="270.25" y="-82.4276" font-family="Courier,monospace" font-size="14.00" fill="white">Eth0/0</text>
<text text-anchor="middle" x="214.33" y="-138.46" font-family="Courier,monospace" font-size="14.00" fill="white">Eth0/3</text>
</g>
<!-- R2&#45;&#45;SW1 -->
<g id="edge5" class="edge"><title>R2&#45;&#45;SW1</title>
<path fill="none" stroke="green" stroke-dasharray="5,2" d="M370.742,-273.815C377.733,-262.994 380.808,-251.261 373.377,-241 359.313,-221.582 298.468,-205.428 255.247,-196.112"/>
<text text-anchor="middle" x="428.377" y="-244.8" font-family="Courier,monospace" font-size="14.00" fill="white"> &#160;&#160;&#160;&#160;&#160;&#160;&#160;&#160;&#160;&#160;&#160;</text>
<text text-anchor="middle" x="280.247" y="-184.912" font-family="Courier,monospace" font-size="14.00" fill="white">Eth0/2</text>
<text text-anchor="middle" x="345.742" y="-262.615" font-family="Courier,monospace" font-size="14.00" fill="white">Eth0/0</text>
</g>
<!-- SW2 -->
<g id="node5" class="node"><title>SW2</title>
<polygon fill="#006699" stroke="#006699" points="377.877,-471 288.877,-471 288.877,-398 377.877,-398 377.877,-471"/>
<text text-anchor="middle" x="333.377" y="-430.8" font-family="Helvetica,sans-Serif" font-size="14.00" fill="white">SW2</text>
</g>
<!-- R2&#45;&#45;SW2 -->
<g id="edge6" class="edge"><title>R2&#45;&#45;SW2</title>
<path fill="none" stroke="green" stroke-dasharray="5,2" d="M333.377,-347.115C333.377,-363.01 333.377,-381.704 333.377,-397.629"/>
<text text-anchor="middle" x="383.377" y="-368.8" font-family="Courier,monospace" font-size="14.00" fill="white"> &#160;&#160;&#160;&#160;&#160;&#160;&#160;&#160;&#160;&#160;&#160;</text>
<text text-anchor="middle" x="304.377" y="-386.429" font-family="Courier,monospace" font-size="14.00" fill="white">Eth0/11</text>
<text text-anchor="middle" x="308.377" y="-350.915" font-family="Courier,monospace" font-size="14.00" fill="white">Eth0/1</text>
</g>
<!-- R5 -->
<g id="node6" class="node"><title>R5</title>
<polygon fill="#006699" stroke="#006699" points="556.377,-223 480.377,-223 480.377,-150 556.377,-150 556.377,-223"/>
<text text-anchor="middle" x="518.377" y="-182.8" font-family="Helvetica,sans-Serif" font-size="14.00" fill="white">R5</text>
</g>
<!-- R3&#45;&#45;R4 -->
<g id="edge8" class="edge"><title>R3&#45;&#45;R4</title>
<path fill="none" stroke="green" stroke-dasharray="5,2" d="M362.612,-99.2785C366.552,-105.007 370.292,-111.023 373.377,-117 378.646,-127.212 382.97,-138.931 386.346,-149.755"/>
<text text-anchor="middle" x="430.377" y="-120.8" font-family="Courier,monospace" font-size="14.00" fill="white"> &#160;&#160;&#160;&#160;&#160;&#160;&#160;&#160;&#160;&#160;&#160;</text>
<text text-anchor="middle" x="361.346" y="-138.555" font-family="Courier,monospace" font-size="14.00" fill="white">Eth0/0</text>
<text text-anchor="middle" x="337.612" y="-103.079" font-family="Courier,monospace" font-size="14.00" fill="white">Eth0/1</text>
</g>
<!-- R3&#45;&#45;SW1 -->
<g id="edge7" class="edge"><title>R3&#45;&#45;SW1</title>
<path fill="none" stroke="green" stroke-dasharray="5,2" d="M295.226,-69.3509C247.371,-77.5595 169.489,-94.0974 152.377,-117 142.023,-130.856 151.553,-145.575 165.669,-157.803"/>
<text text-anchor="middle" x="202.377" y="-120.8" font-family="Courier,monospace" font-size="14.00" fill="white"> &#160;&#160;&#160;&#160;&#160;&#160;&#160;&#160;&#160;&#160;&#160;</text>
<text text-anchor="middle" x="140.669" y="-146.603" font-family="Courier,monospace" font-size="14.00" fill="white">Eth0/3</text>
<text text-anchor="middle" x="270.226" y="-58.1509" font-family="Courier,monospace" font-size="14.00" fill="white">Eth0/0</text>
</g>
<!-- R3&#45;&#45;R5 -->
<g id="edge9" class="edge"><title>R3&#45;&#45;R5</title>
<path fill="none" stroke="green" stroke-dasharray="5,2" d="M371.575,-68.8044C404.817,-75.1761 452.534,-88.7728 484.377,-117 494.212,-125.719 501.526,-137.939 506.796,-149.648"/>
<text text-anchor="middle" x="547.377" y="-120.8" font-family="Courier,monospace" font-size="14.00" fill="white"> &#160;&#160;&#160;&#160;&#160;&#160;&#160;&#160;&#160;&#160;&#160;</text>
<text text-anchor="middle" x="481.796" y="-138.448" font-family="Courier,monospace" font-size="14.00" fill="white">Eth0/0</text>
<text text-anchor="middle" x="396.575" y="-57.6044" font-family="Courier,monospace" font-size="14.00" fill="white">Eth0/2</text>
</g>
</g>
</svg>
